<?xml version="1.0" encoding="UTF-8"?>
<svg width="128px" height="128px" viewBox="0 0 128 128" version="1.1" xmlns="http://www.w3.org/2000/svg" xmlns:xlink="http://www.w3.org/1999/xlink">
    <title>icon</title>
    <g id="运营图" stroke="none" stroke-width="1" fill="none" fill-rule="evenodd">
        <g id="icon">
            <polygon id="矩形备份-4" fill="#164AFF" points="0.251017941 0 128 0 128 128 0.251017941 128 0.251017941 103.387369 0.251017941 96 1.88375272e-18 29.7906276 0.251017941 27.3709785"></polygon>
            <g id="MixPay" transform="translate(25.500000, 19.500000)" fill="#FFFFFF">
                <path d="M3.66208791,6.83076018 C1.53296703,7.598697 0,9.73185483 0,12.2489811 L0,12.2489811 L0,48.6833169 C0,67.8390743 27.125,83.9230844 36.2376374,88.4027158 L36.2376374,88.4027158 C37.0041209,88.7866842 37.9835165,89 38.75,89 L38.75,89 C39.5164835,89 40.4958791,88.7866842 41.2623626,88.4027158 L41.2623626,88.4027158 C50.375,83.9657475 77.5,67.8817374 77.5,48.6833169 L77.5,48.6833169 L77.5,25.559886 L33.3846154,58.794485 C30.6593407,60.8423166 26.8269231,60.0317166 25.1236264,57.0879588 L25.1236264,57.0879588 L11.7953297,36.5669804 C10.9862637,35.1590962 12.5618132,33.5805594 13.967033,34.4338226 L13.967033,34.4338226 L27.3804945,43.6917276 L27.635989,43.8623802 C28.9134615,44.5023276 30.4038462,44.5023276 31.6813187,43.8623802 L31.6813187,43.8623802 L77.4574176,19.8856861 L77.4574176,12.3769705 C77.4574176,9.8598443 75.9244505,7.72668647 73.7953297,6.95874965 L73.7953297,6.95874965 C62.5535714,2.52178135 51.907967,0.00465510131 38.7074176,0.00465510131 L38.7074176,0.00465510131 C25.592033,-0.123334369 14.9038462,2.39379188 3.66208791,6.83076018 L3.66208791,6.83076018 Z" id="path-1_1_"></path>
            </g>
        </g>
    </g>
</svg>